<?xml version="1.0" encoding="UTF-8"?>
<svg id="Layer_1" data-name="Layer 1" xmlns="http://www.w3.org/2000/svg" xmlns:xlink="http://www.w3.org/1999/xlink" viewBox="126.6 4.68 826.79 826.79">
  <defs>
    <clipPath id="clippath">
      <path d="M865.95,573.74c-81.04,81.04-210.88,85.37-297.13,12.99l28.33-28.34c70.59,56.88,175.13,52.6,240.6-12.86,70.03-70.05,70.03-184.87,0-254.91-70.06-70.05-184.88-70.05-254.91,0l-14.77,14.77,28.66,27.74,.37-.37,13.94-13.92c54.46-54.48,144.01-54.48,198.49,0,54.48,54.48,54.48,144.01,0,198.49-49.51,49.51-127.99,54.02-182.78,13.52l-29.6-28.87-28.54-27.87,.34-.34-.19-.18,93.92-96.06c2.31-2.83,4.89-5.44,7.67-7.83l.18-.16c10.6-8.99,24.3-14.42,39.28-14.42,33.56,0,60.75,27.19,60.75,60.75s-27.19,60.75-60.75,60.75c-9.15,0-17.83-2.03-25.6-5.65l38.11-38.26s.02-.04,.04-.04c1.64-1.24,3.11-2.7,4.33-4.36,.3-.41,.58-.83,.87-1.25,2.05-3.23,3.23-7.09,3.23-11.19,0-11.57-9.4-20.96-20.97-20.96-4.1,0-7.93,1.18-11.17,3.23-.37,.23-.74,.49-1.1,.74l-72.24,73.95,.51,.49,29.6,28.86c38.86,25.16,92.01,20.82,125.9-13.09,38.93-38.89,38.91-103.16,0-142.05-38.89-38.93-103.16-38.93-142.07-.02l-13.5,13.52-1.1,1.1-27.05,27.04-1.18,1.18-27.74,27.74-.46,.46-28.15,28.17-.05,.05-27.94,27.94,27.71,28.71,.23-.23,9.14,8.98,19.79,18.48-.48,.49-.25,.25-27.6,27.6-.42,.42-.18,.18-14.61,14.63c-85.63,85.61-225.72,85.61-311.33,0-85.61-85.61-85.61-225.72-.02-311.33,81.04-81.05,210.89-85.37,297.14-12.99l-28.34,28.33c-70.58-56.86-175.11-52.59-240.56,12.86-70.06,70.05-70.06,184.87,0,254.91,70.03,70.04,184.85,70.06,254.89,0l14.37-14.37-27.69-28.71-.94,.94-13.96,13.94c-54.46,54.48-144.01,54.48-198.47,0-54.48-54.48-54.48-144.01,0-198.49,49.87-49.87,129.1-54.07,183.95-12.65l28.56,27.87,28.56,27.85h.02l-28.61,28.61-27.49,26.61-28.66,27.74-14.21,13.75c-.07,.07-.16,.16-.23,.23l-1.29,1.24c-10.88,10.25-25.53,16.56-41.67,16.56-33.56,0-60.75-27.19-60.75-60.75s27.19-60.75,60.75-60.75c9.24,0,18.01,2.07,25.85,5.76l-39.19,38.82s-.04,.04-.07,.05c-.95,.8-1.82,1.66-2.62,2.6-3.09,3.66-4.95,8.38-4.95,13.52,0,11.57,9.4,20.97,20.97,20.97,5.14,0,9.86-1.86,13.52-4.93v-.02l-.05-.05,2.62-2.54c.05-.04,.07-.07,.09-.09l13.27-12.83,26.06-25.23,2.58-2.49,26.89-26.03-28.54-27.85c-38.96-26.1-92.89-22.02-127.16,12.25-38.91,38.91-38.91,103.18,0,142.07,38.89,38.91,103.18,38.93,142.07,0l13.52-13.5,29.32-29.32,27.9-27.92,.3-.3,28.22-28.2,.11-.11,28.1-28.11,.32-.32-45.09-43.65,.04-.02-12.25-11.86,28.78-28.78,14.61-14.63c85.61-85.59,225.7-85.59,311.33,0,85.61,85.63,85.61,225.74,0,311.35Z" style="fill: none;"/>
    </clipPath>
    <linearGradient id="linear-gradient" x1="126.6" y1="418.07" x2="953.4" y2="418.07" gradientUnits="userSpaceOnUse">
      <stop offset="0" stop-color="#2c79dd"/>
      <stop offset=".02" stop-color="#2980d7"/>
      <stop offset=".11" stop-color="#2192c9"/>
      <stop offset=".19" stop-color="#1d9ec0"/>
      <stop offset=".28" stop-color="#1ca2be"/>
      <stop offset=".67" stop-color="#2891cc"/>
      <stop offset=".89" stop-color="#20b2ad"/>
      <stop offset="1" stop-color="#20b2ad"/>
    </linearGradient>
  </defs>
  <g style="clip-path: url(#clippath);">
    <rect x="126.6" y="4.68" width="826.79" height="826.79" style="fill: url(#linear-gradient);"/>
  </g>
</svg>